<svg width="63" height="51" viewBox="0 0 63 51" fill="none" xmlns="http://www.w3.org/2000/svg">
<g clip-path="url(#clip0_2091_2128)">
<rect x="3.0625" y="3.44531" width="55.996" height="43.9981" fill="#FFDA27"/>
<path d="M14.5839 5.03125H48.5793C51.8887 5.03125 53.0888 5.37583 54.2986 6.02288C55.5085 6.66993 56.458 7.61945 57.1051 8.82932C57.7521 10.0392 58.0967 11.2393 58.0967 14.5487V17.1525H5.06641V14.5487C5.06641 11.2393 5.41099 10.0392 6.05804 8.82932C6.70508 7.61945 7.6546 6.66993 8.86448 6.02288C10.0744 5.37583 11.2744 5.03125 14.5839 5.03125Z" fill="#F63030"/>
<path d="M58.0967 33.8164V36.4202C58.0967 39.7296 57.7521 40.9297 57.1051 42.1395C56.458 43.3494 55.5085 44.2989 54.2986 44.946C53.0888 45.593 51.8887 45.9376 48.5793 45.9376H14.5839C11.2744 45.9376 10.0744 45.593 8.86448 44.946C7.6546 44.2989 6.70508 43.3494 6.05804 42.1395C5.41099 40.9297 5.06641 39.7296 5.06641 36.4202V33.8164H58.0967Z" fill="#8FD130"/>
<circle cx="31.0625" cy="25.5078" r="4.65234" fill="#0EA6FB" stroke="#F63030" stroke-width="3"/>
</g>
<rect x="3.0625" y="3.50781" width="56" height="44" rx="9" stroke="white" stroke-width="3"/>
<defs>
<clipPath id="clip0_2091_2128">
<rect x="3.0625" y="3.50781" width="56" height="44" rx="9" fill="white"/>
</clipPath>
</defs>
</svg>
