<svg width="63" height="50" viewBox="0 0 63 50" fill="none" xmlns="http://www.w3.org/2000/svg">
<path d="M48.0593 3.02344H14.0639C10.3253 3.02344 8.99096 3.46625 7.62993 4.19414C6.15211 4.98449 4.9923 6.14429 4.20195 7.62212C3.47406 8.98315 3.03125 10.3175 3.03125 14.056V35.9302C3.03125 39.6687 3.47406 41.0031 4.20195 42.3642C4.9923 43.842 6.15211 45.0018 7.62993 45.7921C8.99096 46.52 10.3253 46.9628 14.0639 46.9628H48.0593C51.7978 46.9628 53.1321 46.52 54.4932 45.7921C55.971 45.0018 57.1308 43.842 57.9212 42.3642C58.649 41.0031 59.0919 39.6687 59.0919 35.9302V14.056C59.0919 10.3175 58.649 8.98315 57.9212 7.62212C57.1308 6.14429 55.971 4.98449 54.4932 4.19414C53.1321 3.46625 51.7978 3.02344 48.0593 3.02344Z" fill="#8FD130" stroke="white" stroke-width="3.0303"/>
<path fill-rule="evenodd" clip-rule="evenodd" d="M9.17627 24.5254L30.1688 9.22527C30.7006 8.83766 31.4218 8.83766 31.9536 9.22526L52.9461 24.5254C53.6224 25.0183 53.771 25.966 53.2782 26.6423C53.1845 26.7707 53.0712 26.8837 52.9425 26.977L31.95 42.181C31.4197 42.5651 30.7027 42.5651 30.1724 42.181L9.17994 26.977C8.50222 26.4861 8.35073 25.5388 8.84158 24.8611C8.93483 24.7323 9.04778 24.619 9.17627 24.5254Z" fill="#FFDA27"/>
<path d="M31.0636 34.8459C36.0843 34.8459 40.1545 30.7757 40.1545 25.755C40.1545 20.7342 36.0843 16.6641 31.0636 16.6641C26.0428 16.6641 21.9727 20.7342 21.9727 25.755C21.9727 30.7757 26.0428 34.8459 31.0636 34.8459Z" fill="#1D80AE"/>
<path fill-rule="evenodd" clip-rule="evenodd" d="M21.9922 25.1548C22.0682 23.9863 22.3649 22.8779 22.8411 21.8711L40.1445 26.1853C40.0898 27.3565 39.8134 28.4698 39.3563 29.4842L21.9922 25.1548Z" fill="white"/>
</svg>
