<svg width="63" height="51" viewBox="0 0 63 51" fill="none" xmlns="http://www.w3.org/2000/svg">
<path d="M48.6335 3.41406H14.6381C10.8996 3.41406 9.56518 3.85688 8.20415 4.58476C6.72632 5.37511 5.56652 6.53492 4.77617 8.01274C4.04828 9.37377 3.60547 10.7082 3.60547 14.4467V36.3209C3.60547 40.0594 4.04828 41.3937 4.77617 42.7548C5.56652 44.2326 6.72632 45.3924 8.20415 46.1828C9.56518 46.9106 10.8996 47.3535 14.6381 47.3535H48.6335C52.372 47.3535 53.7064 46.9106 55.0674 46.1828C56.5452 45.3924 57.705 44.2326 58.4954 42.7548C59.2233 41.3937 59.6661 40.0594 59.6661 36.3209V14.4467C59.6661 10.7082 59.2233 9.37377 58.4954 8.01274C57.705 6.53492 56.5452 5.37511 55.0674 4.58476C53.7064 3.85688 52.372 3.41406 48.6335 3.41406Z" fill="white" stroke="#B74040" stroke-width="3.0303"/>
<path d="M9.81477 4.94922C6.33607 4.94922 3.51562 7.76966 3.51562 11.2484V39.5945C3.51562 43.0732 6.33607 45.8937 9.81477 45.8937H19.2635V4.94922H9.81477ZM53.9088 4.94922H44.4601V45.8937H53.9088C57.3875 45.8937 60.2079 43.0732 60.2079 39.5945V11.2484C60.2079 7.76966 57.3875 4.94922 53.9088 4.94922Z" fill="#F63030"/>
<path d="M32.8296 31.8958C34.7161 32.1147 36.4075 32.3115 38.2925 32.5273L37.8122 30.9493C37.735 30.6722 37.8452 30.3698 38.0626 30.1998L43.5413 25.7368L42.4074 25.203C41.9082 25.025 42.0452 24.7431 42.2263 24.066L43.0625 21.0172L39.8799 21.6896C39.5696 21.7369 39.3633 21.54 39.3161 21.351L38.9051 19.9164L36.3886 22.7416C36.0311 23.1951 35.3067 23.1951 35.5319 22.1494L36.6075 16.4267L35.1634 17.1747C34.7587 17.4015 34.3539 17.4393 34.1288 17.0345L32.1366 13.3086L30.1445 17.0345C29.9178 17.4393 29.5131 17.4015 29.1083 17.1747L27.6658 16.4267L28.7414 22.1494C28.9682 23.1951 28.2422 23.1951 27.8847 22.7416L25.3682 19.918L24.9588 21.3526C24.9115 21.5416 24.7037 21.7384 24.3934 21.6912L21.2108 21.0187L22.047 24.0675C22.2249 24.7447 22.3635 25.0266 21.8643 25.2045L20.7305 25.7384L26.2092 30.2013C26.4265 30.3698 26.5367 30.6738 26.458 30.9509L25.9777 32.5289L31.4422 31.8974C31.6091 31.8974 31.7193 31.9903 31.7178 32.1824L31.3807 38.0154H32.8862L32.5508 32.1824C32.554 31.9887 32.6626 31.8958 32.8296 31.8958Z" fill="#F63030"/>
<path d="M48.6335 3.41406H14.6381C10.8996 3.41406 9.56518 3.85688 8.20415 4.58476C6.72632 5.37511 5.56652 6.53492 4.77617 8.01274C4.04828 9.37377 3.60547 10.7082 3.60547 14.4467V36.3209C3.60547 40.0594 4.04828 41.3937 4.77617 42.7548C5.56652 44.2326 6.72632 45.3924 8.20415 46.1828C9.56518 46.9106 10.8996 47.3535 14.6381 47.3535H48.6335C52.372 47.3535 53.7064 46.9106 55.0674 46.1828C56.5452 45.3924 57.705 44.2326 58.4954 42.7548C59.2233 41.3937 59.6661 40.0594 59.6661 36.3209V14.4467C59.6661 10.7082 59.2233 9.37377 58.4954 8.01274C57.705 6.53492 56.5452 5.37511 55.0674 4.58476C53.7064 3.85688 52.372 3.41406 48.6335 3.41406Z" stroke="white" stroke-width="3.0303"/>
</svg>
