<svg width="63" height="50" viewBox="0 0 63 50" fill="none" xmlns="http://www.w3.org/2000/svg">
<path fill-rule="evenodd" clip-rule="evenodd" d="M48.0593 3.03516H14.0639C10.3253 3.03516 8.99096 3.47797 7.62993 4.20586C6.15211 4.99621 4.9923 6.15601 4.20195 7.63384C3.47406 8.99487 3.03125 10.3292 3.03125 14.0678V35.9419C3.03125 39.6805 3.47406 41.0148 4.20195 42.3759C4.9923 43.8537 6.15211 45.0135 7.62993 45.8039C8.99096 46.5317 10.3253 46.9746 14.0639 46.9746H48.0593C51.7978 46.9746 53.1321 46.5317 54.4932 45.8039C55.971 45.0135 57.1308 43.8537 57.9212 42.3759C58.649 41.0148 59.0919 39.6805 59.0919 35.9419V14.0678C59.0919 10.3292 58.649 8.99487 57.9212 7.63384C57.1308 6.15601 55.971 4.99621 54.4932 4.20586C53.1321 3.47797 51.7978 3.03516 48.0593 3.03516Z" fill="#F73030" stroke="white" stroke-width="3.0303"/>
<path fill-rule="evenodd" clip-rule="evenodd" d="M14.0672 4.55078H48.0626C51.372 4.55078 52.5721 4.89536 53.782 5.54241C54.9919 6.18946 55.9414 7.13898 56.5884 8.34885C56.7188 8.5926 56.8369 8.83595 56.9423 9.09624H5.1875C5.29296 8.83595 5.41104 8.5926 5.5414 8.34885C6.18845 7.13898 7.13797 6.18946 8.34784 5.54241C9.55772 4.89536 10.7578 4.55078 14.0672 4.55078Z" fill="#FFDA27"/>
<path fill-rule="evenodd" clip-rule="evenodd" d="M57.5752 13.6406C57.5765 13.7788 57.5772 13.9209 57.5772 14.0672V18.1861H4.54688V14.0672C4.54688 13.9209 4.54755 13.7788 4.54889 13.6406H57.5752Z" fill="#FFDA27"/>
<path fill-rule="evenodd" clip-rule="evenodd" d="M57.5772 22.7305V27.2759H4.54688L4.54688 22.7305H57.5772Z" fill="#FFDA27"/>
<path fill-rule="evenodd" clip-rule="evenodd" d="M57.5772 35.9392C57.5772 36.0855 57.5765 36.2276 57.5752 36.3658H4.54889C4.54755 36.2276 4.54688 36.0855 4.54688 35.9392V31.8203H57.5772V35.9392Z" fill="#FFDA27"/>
<path fill-rule="evenodd" clip-rule="evenodd" d="M56.9423 40.9141C56.8369 41.1743 56.7188 41.4177 56.5884 41.6614C55.9414 42.8713 54.9919 43.8208 53.782 44.4679C52.5721 45.1149 51.372 45.4595 48.0626 45.4595H14.0672C10.7578 45.4595 9.55772 45.1149 8.34784 44.4679C7.13797 43.8208 6.18845 42.8713 5.5414 41.6614C5.41104 41.4177 5.29296 41.1743 5.1875 40.9141H56.9423Z" fill="#FFDA27"/>
</svg>
