<svg width="63" height="50" viewBox="0 0 63 50" fill="none" xmlns="http://www.w3.org/2000/svg">
<path d="M48.0593 3.03516H14.0639C10.3253 3.03516 8.99096 3.47797 7.62993 4.20586C6.15211 4.99621 4.9923 6.15601 4.20195 7.63384C3.47406 8.99487 3.03125 10.3292 3.03125 14.0678V35.9419C3.03125 39.6805 3.47406 41.0148 4.20195 42.3759C4.9923 43.8537 6.15211 45.0135 7.62993 45.8039C8.99096 46.5317 10.3253 46.9746 14.0639 46.9746H48.0593C51.7978 46.9746 53.1321 46.5317 54.4932 45.8039C55.971 45.0135 57.1308 43.8537 57.9212 42.3759C58.649 41.0148 59.0919 39.6805 59.0919 35.9419V14.0678C59.0919 10.3292 58.649 8.99487 57.9212 7.63384C57.1308 6.15601 55.971 4.99621 54.4932 4.20586C53.1321 3.47797 51.7978 3.03516 48.0593 3.03516Z" fill="#F63030" stroke="white" stroke-width="3.0303"/>
<path d="M33.7173 13.7969C34.1357 13.7969 34.4749 14.1361 34.4749 14.5545V20.939C34.4749 21.3574 34.814 21.6965 35.2324 21.6966L41.6352 21.6974C42.0535 21.6975 42.3927 22.0366 42.3927 22.455V27.4012C42.3927 27.8197 42.0534 28.1589 41.635 28.1588L35.2326 28.158C34.8141 28.1579 34.4749 28.4971 34.4749 28.9156V35.4446C34.4749 35.863 34.1357 36.2022 33.7173 36.2022H28.7711C28.3527 36.2022 28.0135 35.863 28.0135 35.4446V28.9156C28.0135 28.4971 27.6743 28.1579 27.2558 28.158L20.4803 28.1588C20.0619 28.1589 19.7227 27.8197 19.7227 27.4012V22.455C19.7227 22.0366 20.0618 21.6975 20.4801 21.6974L27.256 21.6966C27.6744 21.6965 28.0135 21.3574 28.0135 20.939V14.5545C28.0135 14.1361 28.3527 13.7969 28.7711 13.7969H33.7173Z" fill="white"/>
</svg>
