<svg width="63" height="50" viewBox="0 0 63 50" fill="none" xmlns="http://www.w3.org/2000/svg">
<path d="M48.0593 3.02734H14.0639C10.3253 3.02734 8.99096 3.47016 7.62993 4.19804C6.15211 4.98839 4.9923 6.1482 4.20195 7.62602C3.47406 8.98706 3.03125 10.3214 3.03125 14.0599V35.9341C3.03125 39.6726 3.47406 41.007 4.20195 42.3681C4.9923 43.8459 6.15211 45.0057 7.62993 45.796C8.99096 46.5239 10.3253 46.9667 14.0639 46.9667H48.0593C51.7978 46.9667 53.1321 46.5239 54.4932 45.796C55.971 45.0057 57.1308 43.8459 57.9212 42.3681C58.649 41.007 59.0919 39.6726 59.0919 35.9341V14.0599C59.0919 10.3214 58.649 8.98706 57.9212 7.62602C57.1308 6.1482 55.971 4.98839 54.4932 4.19804C53.1321 3.47016 51.7978 3.02734 48.0593 3.02734Z" fill="#F73030" stroke="white" stroke-width="3.0303"/>
<path d="M28.0323 4.54297H18.9414V45.4521H28.0323V4.54297Z" fill="white"/>
<path d="M57.5781 29.544V20.4531L4.54782 20.4531V29.544L57.5781 29.544Z" fill="white"/>
</svg>
