<svg width="63" height="50" viewBox="0 0 63 50" fill="none" xmlns="http://www.w3.org/2000/svg">
<g clip-path="url(#clip0_2091_2095)">
<rect x="2.61328" y="3.9375" width="55.996" height="43.9981" fill="white"/>
<rect x="35.2266" y="4.42188" width="23" height="17" fill="#F63030"/>
<rect x="35.2266" y="30.4219" width="23" height="18" fill="#0EA6FB"/>
<rect x="2.22656" y="4.42188" width="23.2305" height="17" fill="#0EA6FB"/>
<rect x="2.22656" y="30.4219" width="23.2305" height="18" fill="#F63030"/>
<mask id="path-7-inside-1_2091_2095" fill="white">
<path d="M34.2433 22.2035C34.4635 21.9832 34.8231 21.9816 35.0206 22.2226C35.6123 22.9447 36.0197 23.8035 36.2029 24.7248C36.423 25.8311 36.31 26.9778 35.8784 28.0199C35.4467 29.062 34.7157 29.9527 33.7779 30.5794C32.84 31.206 31.7373 31.5405 30.6094 31.5405C29.4814 31.5405 28.3788 31.206 27.4409 30.5794C26.503 29.9527 25.772 29.062 25.3404 28.0199C24.9087 26.9778 24.7958 25.8311 25.0158 24.7248C25.1991 23.8035 25.6064 22.9447 26.1982 22.2226C26.3956 21.9816 26.7552 21.9832 26.9755 22.2035V22.2035C27.1957 22.4237 27.1925 22.779 27.001 23.0246C26.5639 23.5854 26.2619 24.2425 26.1221 24.9448C25.9456 25.8323 26.0362 26.7522 26.3825 27.5882C26.7288 28.4242 27.3152 29.1388 28.0676 29.6415C28.8199 30.1442 29.7045 30.4125 30.6094 30.4125C31.5143 30.4125 32.3988 30.1442 33.1512 29.6415C33.9036 29.1388 34.49 28.4242 34.8363 27.5882C35.1825 26.7522 35.2731 25.8323 35.0966 24.9448C34.9569 24.2425 34.6548 23.5854 34.2177 23.0246C34.0262 22.779 34.023 22.4237 34.2433 22.2035V22.2035Z"/>
</mask>
<path d="M36.2029 24.7248L38.1645 24.3346L36.2029 24.7248ZM26.1221 24.9448L24.1606 24.5547L26.1221 24.9448ZM35.0966 24.9448L33.135 25.335L35.0966 24.9448ZM34.2177 23.0246L35.7951 21.7951L34.2177 23.0246ZM35.0206 22.2226L33.4736 23.4902L35.0206 22.2226ZM33.4736 23.4902C33.8579 23.9591 34.1224 24.5168 34.2413 25.115L38.1645 24.3346C37.917 23.0902 37.3668 21.9302 36.5675 20.9549L33.4736 23.4902ZM34.2413 25.115C34.3842 25.8333 34.3109 26.5779 34.0306 27.2545L37.7261 28.7853C38.3092 27.3777 38.4617 25.8289 38.1645 24.3346L34.2413 25.115ZM34.0306 27.2545C33.7503 27.9312 33.2757 28.5095 32.6667 28.9164L34.889 32.2423C36.1558 31.3959 37.1431 30.1928 37.7261 28.7853L34.0306 27.2545ZM32.6667 28.9164C32.0577 29.3233 31.3418 29.5405 30.6094 29.5405L30.6094 33.5405C32.1329 33.5405 33.6222 33.0887 34.889 32.2423L32.6667 28.9164ZM30.6094 29.5405C29.877 29.5405 29.161 29.3233 28.552 28.9164L26.3297 32.2423C27.5965 33.0887 29.0858 33.5405 30.6094 33.5405L30.6094 29.5405ZM28.552 28.9164C27.9431 28.5095 27.4684 27.9312 27.1881 27.2545L23.4926 28.7853C24.0756 30.1928 25.063 31.3959 26.3297 32.2423L28.552 28.9164ZM27.1881 27.2545C26.9079 26.5779 26.8345 25.8333 26.9774 25.115L23.0543 24.3346C22.757 25.8289 22.9096 27.3777 23.4926 28.7853L27.1881 27.2545ZM26.9774 25.115C27.0964 24.5168 27.3609 23.9591 27.7451 23.4902L24.6513 20.9549C23.852 21.9302 23.3018 23.0902 23.0543 24.3346L26.9774 25.115ZM25.4236 21.7951C24.7955 22.6009 24.3614 23.5452 24.1606 24.5547L28.0837 25.335C28.1623 24.9397 28.3324 24.5698 28.5784 24.2542L25.4236 21.7951ZM24.1606 24.5547C23.9069 25.8301 24.0371 27.1522 24.5347 28.3536L28.2303 26.8229C28.0353 26.3523 27.9843 25.8345 28.0837 25.335L24.1606 24.5547ZM24.5347 28.3536C25.0324 29.5551 25.8751 30.5819 26.9564 31.3044L29.1787 27.9786C28.7552 27.6956 28.4252 27.2934 28.2303 26.8229L24.5347 28.3536ZM26.9564 31.3044C28.0377 32.0269 29.3089 32.4125 30.6094 32.4125L30.6094 28.4125C30.1001 28.4125 29.6022 28.2615 29.1787 27.9786L26.9564 31.3044ZM30.6094 32.4125C31.9098 32.4125 33.1811 32.0269 34.2623 31.3044L32.04 27.9786C31.6166 28.2615 31.1187 28.4125 30.6094 28.4125L30.6094 32.4125ZM34.2623 31.3044C35.3436 30.5819 36.1864 29.5551 36.684 28.3536L32.9885 26.8229C32.7936 27.2934 32.4635 27.6956 32.04 27.9786L34.2623 31.3044ZM36.684 28.3536C37.1817 27.1522 37.3119 25.8301 37.0582 24.5547L33.135 25.335C33.2344 25.8345 33.1834 26.3523 32.9885 26.8229L36.684 28.3536ZM37.0582 24.5547C36.8574 23.5452 36.4233 22.6009 35.7951 21.7951L32.6404 24.2542C32.8864 24.5698 33.0564 24.9397 33.135 25.335L37.0582 24.5547ZM35.7951 21.7951C36.1287 22.223 36.2558 23.0194 35.6575 23.6177L32.8291 20.7893C31.7903 21.828 31.9238 23.335 32.6404 24.2542L35.7951 21.7951ZM25.5612 23.6177C24.963 23.0194 25.0901 22.223 25.4236 21.7951L28.5784 24.2542C29.295 23.335 29.4284 21.828 28.3897 20.7893L25.5612 23.6177ZM27.7451 23.4902C27.1085 24.2671 26.08 24.1365 25.5612 23.6177L28.3897 20.7893C27.4304 19.83 25.6828 19.6961 24.6513 20.9549L27.7451 23.4902ZM36.5675 20.9549C35.536 19.6961 33.7884 19.83 32.8291 20.7893L35.6575 23.6177C35.1387 24.1365 34.1103 24.2671 33.4736 23.4902L36.5675 20.9549Z" fill="#9B5F38" mask="url(#path-7-inside-1_2091_2095)"/>
<circle cx="30.611" cy="25.8376" r="4.00555" fill="#8FD130"/>
</g>
<rect x="2.61328" y="4" width="56" height="44" rx="9" stroke="white" stroke-width="3"/>
<defs>
<clipPath id="clip0_2091_2095">
<rect x="2.61328" y="4" width="56" height="44" rx="9" fill="white"/>
</clipPath>
</defs>
</svg>
