<svg width="63" height="50" viewBox="0 0 63 50" fill="none" xmlns="http://www.w3.org/2000/svg">
<path d="M48.0593 3.02734H14.0639C10.3253 3.02734 8.99096 3.47016 7.62993 4.19804C6.15211 4.98839 4.9923 6.1482 4.20195 7.62602C3.47406 8.98706 3.03125 10.3214 3.03125 14.0599V35.9341C3.03125 39.6726 3.47406 41.007 4.20195 42.3681C4.9923 43.8459 6.15211 45.0057 7.62993 45.796C8.99096 46.5239 10.3253 46.9667 14.0639 46.9667H48.0593C51.7978 46.9667 53.1321 46.5239 54.4932 45.796C55.971 45.0057 57.1308 43.8459 57.9212 42.3681C58.649 41.007 59.0919 39.6726 59.0919 35.9341V14.0599C59.0919 10.3214 58.649 8.98706 57.9212 7.62602C57.1308 6.1482 55.971 4.98839 54.4932 4.19804C53.1321 3.47016 51.7978 3.02734 48.0593 3.02734Z" fill="#1D80AE" stroke="white" stroke-width="3.0303"/>
<path d="M38.2539 24.8242L57.8192 11.6042L58.7608 10.9679L58.1245 10.0263L54.8362 5.16059L54.2 4.21914L53.2585 4.8553L31.6066 19.4852L30.9799 19.9087L8.70697 4.85667L7.76544 4.22039L7.12916 5.16192L3.84093 10.0276L3.20465 10.9691L4.14617 11.6054L23.7064 24.8242L4.14497 38.0438L3.20344 38.68L3.83973 39.6216L7.12796 44.4873L7.76424 45.4288L8.70577 44.7925L30.9799 29.7397L31.6078 30.164L53.2597 44.7939L54.2012 45.4301L54.8374 44.4886L58.1257 39.6229L58.762 38.6813L57.8204 38.045L38.2539 24.8242Z" fill="#F63030"/>
<path d="M38.2539 24.8242L57.8192 11.6042L58.7608 10.9679L58.1245 10.0263L54.8362 5.16059L54.2 4.21914L53.2585 4.8553L31.6066 19.4852L30.9799 19.9087L8.70697 4.85667L7.76544 4.22039L7.12916 5.16192L3.84093 10.0276L3.20465 10.9691L4.14617 11.6054L23.7064 24.8242L4.14497 38.0438L3.20344 38.68L3.83973 39.6216L7.12796 44.4873L7.76424 45.4288L8.70577 44.7925L30.9799 29.7397L31.6078 30.164L53.2597 44.7939L54.2012 45.4301L54.8374 44.4886L58.1257 39.6229L58.762 38.6813L57.8204 38.045L38.2539 24.8242Z" stroke="white" stroke-width="2.27273"/>
<path d="M38.2539 24.8242L57.8192 11.6042L58.7608 10.9679L58.1245 10.0263L54.8362 5.16059L54.2 4.21914L53.2585 4.8553L31.6066 19.4852L30.9799 19.9087L8.70697 4.85667L7.76544 4.22039L7.12916 5.16192L3.84093 10.0276L3.20465 10.9691L4.14617 11.6054L23.7064 24.8242L4.14497 38.0438L3.20344 38.68L3.83973 39.6216L7.12796 44.4873L7.76424 45.4288L8.70577 44.7925L30.9799 29.7397L31.6078 30.164L53.2597 44.7939L54.2012 45.4301L54.8374 44.4886L58.1257 39.6229L58.762 38.6813L57.8204 38.045L38.2539 24.8242Z" stroke="white" stroke-width="2.27273"/>
<path fill-rule="evenodd" clip-rule="evenodd" d="M35.3324 20.4521L57.5772 20.4529V29.5438L35.3324 29.543V45.4521H26.2415V29.543L4.54688 29.5438V20.4529L26.2415 20.4521V4.54297H35.3324V20.4521Z" fill="#F63030" stroke="white" stroke-width="2.27273"/>
</svg>
