<svg width="63" height="50" viewBox="0 0 63 50" fill="none" xmlns="http://www.w3.org/2000/svg">
<path d="M48.0593 3.02734H14.0639C10.3253 3.02734 8.99096 3.47016 7.62993 4.19804C6.15211 4.98839 4.9923 6.1482 4.20195 7.62602C3.47406 8.98706 3.03125 10.3214 3.03125 14.0599V35.9341C3.03125 39.6726 3.47406 41.007 4.20195 42.3681C4.9923 43.8459 6.15211 45.0057 7.62993 45.796C8.99096 46.5239 10.3253 46.9667 14.0639 46.9667H48.0593C51.7978 46.9667 53.1321 46.5239 54.4932 45.796C55.971 45.0057 57.1308 43.8459 57.9212 42.3681C58.649 41.007 59.0919 39.6726 59.0919 35.9341V14.0599C59.0919 10.3214 58.649 8.98706 57.9212 7.62602C57.1308 6.1482 55.971 4.98839 54.4932 4.19804C53.1321 3.47016 51.7978 3.02734 48.0593 3.02734Z" fill="white" stroke="white" stroke-width="3.0303"/>
<path d="M14.0643 4.54297H31.062V27.2702H4.54688V14.0604C4.54688 10.751 4.89145 9.55092 5.5385 8.34104C6.18555 7.13116 7.13507 6.18165 8.34495 5.5346C9.55482 4.88755 10.7549 4.54297 14.0643 4.54297Z" fill="#1D80AE"/>
<path d="M48.0583 4.54297C51.3677 4.54297 52.5678 4.88755 53.7777 5.5346C54.9876 6.18165 55.9371 7.13116 56.5841 8.34104C56.7145 8.58479 56.8326 8.82814 56.938 9.08842H25V4.54297H48.0583Z" fill="#1D80AE"/>
<path d="M57.5733 13.6328C57.5746 13.771 57.5753 13.9131 57.5753 14.0594V18.1783H23.4844V13.6328H57.5733Z" fill="#1D80AE"/>
<path d="M57.5772 22.7227V27.2681H4.54688V22.7227H57.5772Z" fill="#1D80AE"/>
<path d="M57.5772 31.8125V35.9314C57.5772 36.0777 57.5765 36.2198 57.5752 36.358H4.54889C4.54755 36.2198 4.54688 36.0777 4.54688 35.9314V31.8125H57.5772Z" fill="#1D80AE"/>
<path d="M56.9423 40.9062C56.8369 41.1665 56.7188 41.4099 56.5884 41.6536C55.9414 42.8635 54.9919 43.813 53.782 44.4601C52.5721 45.1071 51.372 45.4517 48.0626 45.4517H14.0672C10.7578 45.4517 9.55772 45.1071 8.34784 44.4601C7.13797 43.813 6.18845 42.8635 5.5414 41.6536C5.41104 41.4099 5.29296 41.1665 5.1875 40.9062H56.9423Z" fill="#1D80AE"/>
<path d="M4.54688 13.6328H31.062V18.1783H4.54688V13.6328Z" fill="white"/>
<path d="M15.1523 4.54297H19.6978V28.7854H15.1523V4.54297Z" fill="white"/>
</svg>
