<svg width="63" height="50" viewBox="0 0 63 50" fill="none" xmlns="http://www.w3.org/2000/svg">
<g clip-path="url(#clip0_2091_2041)">
<rect x="3.44922" y="2.92188" width="55.996" height="43.9981" fill="white"/>
<path d="M13.3263 4.50781H48.6063C52.0408 4.50781 53.2862 4.85239 54.5418 5.49944C55.7974 6.14649 56.7828 7.09601 57.4543 8.30589C58.1258 9.51576 58.4834 10.7158 58.4834 14.0253V16.629H3.44922V14.0253C3.44922 10.7158 3.80682 9.51576 4.47832 8.30589C5.14982 7.09601 6.13522 6.14649 7.39081 5.49944C8.64641 4.85239 9.89184 4.50781 13.3263 4.50781Z" fill="#0EA6FB"/>
<path d="M58.4834 33.293V36.036C58.4834 39.5224 58.1258 40.7867 57.4543 42.0613C56.7828 43.3359 55.7974 44.3362 54.5418 45.0178C53.2862 45.6995 52.0408 46.0625 48.6063 46.0625H13.3263C9.89184 46.0625 8.64641 45.6995 7.39081 45.0178C6.13522 44.3362 5.14982 43.3359 4.47832 42.0613C3.80682 40.7867 3.44922 39.5224 3.44922 36.036V33.293H58.4834Z" fill="#0EA6FB"/>
<path d="M18.9666 30.7137L18.1339 31.158C17.8553 31.3066 17.5098 31.2 17.362 30.9198C17.303 30.8079 17.2824 30.6794 17.3035 30.5545L17.4647 29.6008C17.4872 29.4679 17.4436 29.3324 17.3481 29.2379L16.6681 28.5652C16.4414 28.341 16.4384 27.9744 16.6613 27.7464C16.7493 27.6564 16.8641 27.5978 16.9882 27.5795L17.9202 27.4421C18.0539 27.4223 18.1694 27.3375 18.2288 27.2154L18.6462 26.3569C18.7846 26.0723 19.1262 25.9544 19.4092 26.0936C19.5231 26.1497 19.6152 26.2423 19.6709 26.3569L20.0884 27.2154C20.1478 27.3375 20.2632 27.4223 20.397 27.4421L21.329 27.5795C21.6435 27.6259 21.8611 27.92 21.815 28.2363C21.7968 28.3612 21.7385 28.4767 21.6491 28.5652L20.9691 29.2379C20.8735 29.3324 20.83 29.4679 20.8524 29.6008L21.0136 30.5545C21.0664 30.8671 20.8573 31.1637 20.5465 31.2169C20.4223 31.2381 20.2946 31.2174 20.1833 31.158L19.3505 30.7137C19.2305 30.6497 19.0867 30.6497 18.9666 30.7137Z" fill="#0EA6FB"/>
<path d="M18.9666 23.2918L18.1339 23.7362C17.8553 23.8848 17.5098 23.7781 17.362 23.4979C17.303 23.386 17.2824 23.2575 17.3035 23.1326L17.4647 22.1789C17.4872 22.046 17.4436 21.9105 17.3481 21.816L16.6681 21.1433C16.4414 20.9191 16.4384 20.5525 16.6613 20.3245C16.7493 20.2345 16.8641 20.1759 16.9882 20.1576L17.9202 20.0202C18.0539 20.0005 18.1694 19.9156 18.2288 19.7935L18.6462 18.935C18.7846 18.6504 19.1262 18.5325 19.4092 18.6718C19.5231 18.7278 19.6152 18.8205 19.6709 18.935L20.0884 19.7935C20.1478 19.9156 20.2632 20.0005 20.397 20.0202L21.329 20.1576C21.6435 20.204 21.8611 20.4981 21.815 20.8145C21.7968 20.9393 21.7385 21.0548 21.6491 21.1433L20.9691 21.816C20.8735 21.9105 20.83 22.046 20.8524 22.1789L21.0136 23.1326C21.0664 23.4453 20.8573 23.7418 20.5465 23.795C20.4223 23.8162 20.2946 23.7955 20.1833 23.7362L19.3505 23.2918C19.2305 23.2278 19.0867 23.2278 18.9666 23.2918Z" fill="#0EA6FB"/>
<path d="M43.5447 30.7137L42.712 31.158C42.4334 31.3066 42.0879 31.2 41.9401 30.9198C41.8811 30.8079 41.8605 30.6794 41.8817 30.5545L42.0428 29.6008C42.0653 29.4679 42.0217 29.3324 41.9262 29.2379L41.2462 28.5652C41.0196 28.341 41.0165 27.9744 41.2394 27.7464C41.3274 27.6564 41.4422 27.5978 41.5663 27.5795L42.4983 27.4421C42.632 27.4223 42.7475 27.3375 42.8069 27.2154L43.2243 26.3569C43.3628 26.0723 43.7044 25.9544 43.9873 26.0936C44.1012 26.1497 44.1933 26.2423 44.2491 26.3569L44.6665 27.2154C44.7259 27.3375 44.8414 27.4223 44.9751 27.4421L45.9071 27.5795C46.2216 27.6259 46.4392 27.92 46.3931 28.2363C46.3749 28.3612 46.3166 28.4767 46.2272 28.5652L45.5472 29.2379C45.4517 29.3324 45.4081 29.4679 45.4306 29.6008L45.5917 30.5545C45.6446 30.8671 45.4354 31.1637 45.1246 31.2169C45.0004 31.2381 44.8727 31.2174 44.7614 31.158L43.9287 30.7137C43.8086 30.6497 43.6648 30.6497 43.5447 30.7137Z" fill="#0EA6FB"/>
<path d="M43.5447 23.2918L42.712 23.7362C42.4334 23.8848 42.0879 23.7781 41.9401 23.4979C41.8811 23.386 41.8605 23.2575 41.8817 23.1326L42.0428 22.1789C42.0653 22.046 42.0217 21.9105 41.9262 21.816L41.2462 21.1433C41.0196 20.9191 41.0165 20.5525 41.2394 20.3245C41.3274 20.2345 41.4422 20.1759 41.5663 20.1576L42.4983 20.0202C42.632 20.0005 42.7475 19.9156 42.8069 19.7935L43.2243 18.935C43.3628 18.6504 43.7044 18.5325 43.9873 18.6718C44.1012 18.7278 44.1933 18.8205 44.2491 18.935L44.6665 19.7935C44.7259 19.9156 44.8414 20.0005 44.9751 20.0202L45.9071 20.1576C46.2216 20.204 46.4392 20.4981 46.3931 20.8145C46.3749 20.9393 46.3166 21.0548 46.2272 21.1433L45.5472 21.816C45.4517 21.9105 45.4081 22.046 45.4306 22.1789L45.5917 23.1326C45.6446 23.4453 45.4354 23.7418 45.1246 23.795C45.0004 23.8162 44.8727 23.7955 44.7614 23.7362L43.9287 23.2918C43.8086 23.2278 43.6648 23.2278 43.5447 23.2918Z" fill="#0EA6FB"/>
<path d="M31.2557 27.0692L30.4229 27.5135C30.1444 27.6621 29.7988 27.5555 29.6511 27.2753C29.592 27.1633 29.5715 27.0349 29.5926 26.9099L29.7538 25.9562C29.7762 25.8234 29.7327 25.6878 29.6371 25.5933L28.9571 24.9206C28.7305 24.6964 28.7275 24.3298 28.9504 24.1019C29.0383 24.0119 29.1531 23.9533 29.2772 23.935L30.2092 23.7975C30.343 23.7778 30.4584 23.693 30.5178 23.5709L30.9353 22.7124C31.0737 22.4278 31.4153 22.3099 31.6983 22.4491C31.8122 22.5052 31.9043 22.5978 31.96 22.7124L32.3774 23.5709C32.4368 23.693 32.5523 23.7778 32.686 23.7975L33.618 23.935C33.9325 23.9813 34.1501 24.2754 34.104 24.5918C34.0858 24.7167 34.0276 24.8322 33.9381 24.9206L33.2581 25.5933C33.1626 25.6878 33.119 25.8234 33.1415 25.9562L33.3027 26.9099C33.3555 27.2226 33.1464 27.5192 32.8355 27.5723C32.7113 27.5936 32.5836 27.5729 32.4723 27.5135L31.6396 27.0692C31.5195 27.0051 31.3757 27.0051 31.2557 27.0692Z" fill="#0EA6FB"/>
</g>
<rect x="3.44922" y="2.98438" width="56" height="44" rx="9" stroke="white" stroke-width="3"/>
<defs>
<clipPath id="clip0_2091_2041">
<rect x="3.44922" y="2.98438" width="56" height="44" rx="9" fill="white"/>
</clipPath>
</defs>
</svg>
