<svg width="63" height="50" viewBox="0 0 63 50" fill="none" xmlns="http://www.w3.org/2000/svg">
<path d="M48.0593 3.03516H14.0639C10.3253 3.03516 8.99096 3.47797 7.62993 4.20586C6.15211 4.99621 4.9923 6.15601 4.20195 7.63384C3.47406 8.99487 3.03125 10.3292 3.03125 14.0678V35.9419C3.03125 39.6805 3.47406 41.0148 4.20195 42.3759C4.9923 43.8537 6.15211 45.0135 7.62993 45.8039C8.99096 46.5317 10.3253 46.9746 14.0639 46.9746H48.0593C51.7978 46.9746 53.1321 46.5317 54.4932 45.8039C55.971 45.0135 57.1308 43.8537 57.9212 42.3759C58.649 41.0148 59.0919 39.6805 59.0919 35.9419V14.0678C59.0919 10.3292 58.649 8.99487 57.9212 7.63384C57.1308 6.15601 55.971 4.99621 54.4932 4.20586C53.1321 3.47797 51.7978 3.03516 48.0593 3.03516Z" fill="white" stroke="white" stroke-width="3.0303"/>
<path d="M57.5772 31.8203V35.9392C57.5772 39.2486 57.2326 40.4487 56.5856 41.6586C55.9385 42.8685 54.989 43.818 53.7791 44.465C52.5692 45.1121 51.3692 45.4567 48.0597 45.4567H14.0643C10.7549 45.4567 9.55482 45.1121 8.34495 44.465C7.13507 43.818 6.18555 42.8685 5.5385 41.6586C4.89145 40.4487 4.54688 39.2486 4.54688 35.9392V31.8203H57.5772Z" fill="#8FD130"/>
<path d="M14.0643 4.55078H48.0597C51.3692 4.55078 52.5692 4.89536 53.7791 5.54241C54.989 6.18946 55.9385 7.13898 56.5856 8.34885C57.2326 9.55873 57.5772 10.7588 57.5772 14.0682V18.1871H4.54688V14.0682C4.54688 10.7588 4.89145 9.55873 5.5385 8.34885C6.18555 7.13898 7.13507 6.18946 8.34495 5.54241C9.55482 4.89536 10.7549 4.55078 14.0643 4.55078Z" fill="#F73030"/>
</svg>
