<svg width="63" height="50" viewBox="0 0 63 50" fill="none" xmlns="http://www.w3.org/2000/svg">
<path d="M48.0593 3.03125H14.0639C10.3253 3.03125 8.99096 3.47406 7.62993 4.20195C6.15211 4.9923 4.9923 6.15211 4.20195 7.62993C3.47406 8.99096 3.03125 10.3253 3.03125 14.0639V35.938C3.03125 39.6766 3.47406 41.0109 4.20195 42.372C4.9923 43.8498 6.15211 45.0096 7.62993 45.7999C8.99096 46.5278 10.3253 46.9706 14.0639 46.9706H48.0593C51.7978 46.9706 53.1321 46.5278 54.4932 45.7999C55.971 45.0096 57.1308 43.8498 57.9212 42.372C58.649 41.0109 59.0919 39.6766 59.0919 35.938V14.0639C59.0919 10.3253 58.649 8.99096 57.9212 7.62993C57.1308 6.15211 55.971 4.9923 54.4932 4.20195C53.1321 3.47406 51.7978 3.03125 48.0593 3.03125Z" fill="white" stroke="white" stroke-width="3.0303"/>
<path d="M14.0643 4.54688H48.0597C51.3692 4.54688 52.5692 4.89145 53.7791 5.5385C54.989 6.18555 55.9385 7.13507 56.5856 8.34495C57.2326 9.55482 57.5772 10.7549 57.5772 14.0643V16.6681H4.54688V14.0643C4.54688 10.7549 4.89145 9.55482 5.5385 8.34495C6.18555 7.13507 7.13507 6.18555 8.34495 5.5385C9.55482 4.89145 10.7549 4.54688 14.0643 4.54688Z" fill="#FF9600"/>
<path d="M57.5772 33.332V35.9358C57.5772 39.2452 57.2326 40.4453 56.5856 41.6552C55.9385 42.865 54.989 43.8146 53.7791 44.4616C52.5692 45.1087 51.3692 45.4532 48.0597 45.4532H14.0643C10.7549 45.4532 9.55482 45.1087 8.34495 44.4616C7.13507 43.8146 6.18555 42.865 5.5385 41.6552C4.89145 40.4453 4.54688 39.2452 4.54688 35.9358V33.332H57.5772Z" fill="#8FD130"/>
<path d="M31.0606 31.0626C27.7134 31.0626 25 28.3492 25 25.002C25 21.6548 27.7134 18.9414 31.0606 18.9414C34.4078 18.9414 37.1212 21.6548 37.1212 25.002C37.1212 28.3492 34.4078 31.0626 31.0606 31.0626ZM31.0606 28.0323C32.7342 28.0323 34.0909 26.6756 34.0909 25.002C34.0909 23.3284 32.7342 21.9717 31.0606 21.9717C29.387 21.9717 28.0303 23.3284 28.0303 25.002C28.0303 26.6756 29.387 28.0323 31.0606 28.0323Z" fill="#1D80AE"/>
</svg>
