<svg width="63" height="50" viewBox="0 0 63 50" fill="none" xmlns="http://www.w3.org/2000/svg">
<path d="M48.0593 3.03125H14.0639C10.3253 3.03125 8.99096 3.47406 7.62993 4.20195C6.15211 4.9923 4.9923 6.15211 4.20195 7.62993C3.47406 8.99096 3.03125 10.3253 3.03125 14.0639V35.938C3.03125 39.6766 3.47406 41.0109 4.20195 42.372C4.9923 43.8498 6.15211 45.0096 7.62993 45.7999C8.99096 46.5278 10.3253 46.9706 14.0639 46.9706H48.0593C51.7978 46.9706 53.1321 46.5278 54.4932 45.7999C55.971 45.0096 57.1308 43.8498 57.9212 42.372C58.649 41.0109 59.0919 39.6766 59.0919 35.938V14.0639C59.0919 10.3253 58.649 8.99096 57.9212 7.62993C57.1308 6.15211 55.971 4.9923 54.4932 4.20195C53.1321 3.47406 51.7978 3.03125 48.0593 3.03125Z" fill="white" stroke="white" stroke-width="3.0303"/>
<path d="M22.4446 4.54688V45.456H14.0643C10.7549 45.456 9.55482 45.1114 8.34495 44.4643C7.13507 43.8173 6.18555 42.8678 5.5385 41.6579C4.89145 40.448 4.54688 39.2479 4.54688 35.9385V14.0643C4.54688 10.7549 4.89145 9.55482 5.5385 8.34495C6.18555 7.13507 7.13507 6.18555 8.34495 5.5385C9.55482 4.89145 10.7549 4.54688 14.0643 4.54688H22.4446Z" fill="#8FD130"/>
<path d="M39.6758 4.54688H48.0561C51.3655 4.54688 52.5656 4.89145 53.7754 5.5385C54.9853 6.18555 55.9348 7.13507 56.5819 8.34495C57.2289 9.55482 57.5735 10.7549 57.5735 14.0643V35.9385C57.5735 39.2479 57.2289 40.448 56.5819 41.6579C55.9348 42.8678 54.9853 43.8173 53.7754 44.4643C52.5656 45.1114 51.3655 45.456 48.0561 45.456H39.6758V4.54688Z" fill="#FF9600"/>
</svg>
