<svg width="63" height="50" viewBox="0 0 63 50" fill="none" xmlns="http://www.w3.org/2000/svg">
<path fill-rule="evenodd" clip-rule="evenodd" d="M48.0593 3.02734H14.0639C10.3253 3.02734 8.99096 3.47016 7.62993 4.19804C6.15211 4.98839 4.9923 6.1482 4.20195 7.62602C3.47406 8.98706 3.03125 10.3214 3.03125 14.0599V35.9341C3.03125 39.6726 3.47406 41.007 4.20195 42.3681C4.9923 43.8459 6.15211 45.0057 7.62993 45.796C8.99096 46.5239 10.3253 46.9667 14.0639 46.9667H48.0593C51.7978 46.9667 53.1321 46.5239 54.4932 45.796C55.971 45.0057 57.1308 43.8459 57.9212 42.3681C58.649 41.007 59.0919 39.6726 59.0919 35.9341V14.0599C59.0919 10.3214 58.649 8.98706 57.9212 7.62602C57.1308 6.1482 55.971 4.98839 54.4932 4.19804C53.1321 3.47016 51.7978 3.02734 48.0593 3.02734Z" fill="white" stroke="white" stroke-width="3.0303"/>
<path d="M31.0633 34.8454C36.5025 34.8454 40.9118 30.4361 40.9118 24.9969C40.9118 19.5578 36.5025 15.1484 31.0633 15.1484C25.6242 15.1484 21.2148 19.5578 21.2148 24.9969C21.2148 30.4361 25.6242 34.8454 31.0633 34.8454Z" fill="#F73030"/>
<path d="M21.2188 25.3757C22.9035 27.1343 24.5626 28.0137 26.1961 28.0137C27.8319 28.0137 29.4604 27.1318 31.0816 25.3682C32.5638 23.6045 34.1602 22.7227 35.8706 22.7227C37.5196 22.7227 39.1983 23.5423 40.9068 25.1815C40.8076 30.5348 36.437 34.8439 31.06 34.8439C25.7482 34.8439 21.4186 30.6386 21.2188 25.3757Z" fill="#1D80AE"/>
<path d="M17.4656 40.6301L10.8037 33.9834C10.415 33.5955 10.4143 32.9659 10.8022 32.5772C11.19 32.1884 11.8196 32.1877 12.2083 32.5756L18.8702 39.2223C19.2589 39.6102 19.2596 40.2398 18.8718 40.6285C18.4839 41.0173 17.8543 41.018 17.4656 40.6301Z" fill="#4C4C4C"/>
<path d="M47.3569 20.0281L44.9431 17.611C44.5551 17.2224 44.5555 16.5928 44.9441 16.2048C45.3326 15.8168 45.9622 15.8172 46.3502 16.2058L48.764 18.6229C49.1521 19.0115 49.1516 19.641 48.7631 20.0291C48.3745 20.4171 47.7449 20.4167 47.3569 20.0281Z" fill="#4C4C4C"/>
<path d="M11.5443 17.4817C11.1555 17.8695 10.526 17.8688 10.1381 17.4801C9.75022 17.0913 9.75094 16.4618 10.1397 16.0739L16.8015 9.42715C17.1903 9.03929 17.8198 9.04 18.2077 9.42875C18.5956 9.81749 18.5949 10.4471 18.2061 10.8349L11.5443 17.4817Z" fill="#4C4C4C"/>
<path d="M42.9477 15.63L40.6944 13.3818C40.3056 12.9939 40.3049 12.3644 40.6928 11.9756C41.0806 11.5869 41.7102 11.5862 42.099 11.974L44.3522 14.2222C44.741 14.6101 44.7417 15.2396 44.3538 15.6284C43.966 16.0171 43.3364 16.0178 42.9477 15.63Z" fill="#4C4C4C"/>
<path d="M15.6781 33.587L13.4248 31.3388C13.0361 30.951 13.0354 30.3214 13.4232 29.9327C13.8111 29.5439 14.4407 29.5432 14.8294 29.9311L17.0827 32.1792C17.4714 32.5671 17.4722 33.1967 17.0843 33.5854C16.6964 33.9742 16.0669 33.9749 15.6781 33.587Z" fill="#4C4C4C"/>
<path d="M42.0365 37.9856C41.6477 38.3734 41.0181 38.3727 40.6303 37.984C40.2424 37.5952 40.2431 36.9657 40.6319 36.5778L47.2937 29.9311C47.6825 29.5432 48.312 29.5439 48.6999 29.9327C49.0878 30.3214 49.087 30.951 48.6983 31.3388L42.0365 37.9856Z" fill="#4C4C4C"/>
<path d="M50.0092 17.3836L47.5954 14.9665C47.2074 14.5779 47.2078 13.9483 47.5964 13.5603C47.985 13.1722 48.6145 13.1727 49.0026 13.5612L51.4164 15.9784C51.8044 16.3669 51.804 16.9965 51.4154 17.3845C51.0268 17.7726 50.3973 17.7722 50.0092 17.3836Z" fill="#4C4C4C"/>
<path d="M14.1966 20.1301C13.8079 20.518 13.1783 20.5173 12.7904 20.1285C12.4026 19.7398 12.4033 19.1102 12.792 18.7223L19.4539 12.0756C19.8426 11.6877 20.4722 11.6884 20.8601 12.0772C21.2479 12.4659 21.2472 13.0955 20.8585 13.4834L14.1966 20.1301Z" fill="#4C4C4C"/>
<path d="M44.6927 40.6301C44.304 41.018 43.6744 41.0173 43.2865 40.6285C42.8987 40.2398 42.8994 39.6102 43.2881 39.2223L49.95 32.5756C50.3387 32.1877 50.9683 32.1884 51.3561 32.5772C51.744 32.9659 51.7433 33.5955 51.3546 33.9834L44.6927 40.6301Z" fill="#4C4C4C"/>
<path d="M45.6 12.9854L43.3467 10.7373C42.958 10.3494 42.9573 9.71984 43.3451 9.33109C43.733 8.94234 44.3625 8.94163 44.7513 9.32949L47.0046 11.5777C47.3933 11.9655 47.394 12.5951 47.0062 12.9838C46.6183 13.3726 45.9887 13.3733 45.6 12.9854Z" fill="#4C4C4C"/>
<path d="M20.0835 37.9812L17.6697 35.5641C17.2816 35.1755 17.282 34.546 17.6706 34.1579C18.0592 33.7699 18.6888 33.7703 19.0768 34.1589L21.4906 36.576C21.8786 36.9646 21.8782 37.5942 21.4896 37.9822C21.1011 38.3702 20.4715 38.3698 20.0835 37.9812Z" fill="#4C4C4C"/>
</svg>
