<svg width="63" height="50" viewBox="0 0 63 50" fill="none" xmlns="http://www.w3.org/2000/svg">
<path d="M48.0593 3.03125H14.0639C10.3253 3.03125 8.99096 3.47406 7.62993 4.20195C6.15211 4.9923 4.9923 6.15211 4.20195 7.62993C3.47406 8.99096 3.03125 10.3253 3.03125 14.0639V35.938C3.03125 39.6766 3.47406 41.0109 4.20195 42.372C4.9923 43.8498 6.15211 45.0096 7.62993 45.7999C8.99096 46.5278 10.3253 46.9706 14.0639 46.9706H48.0593C51.7978 46.9706 53.1321 46.5278 54.4932 45.7999C55.971 45.0096 57.1308 43.8498 57.9212 42.372C58.649 41.0109 59.0919 39.6766 59.0919 35.938V14.0639C59.0919 10.3253 58.649 8.99096 57.9212 7.62993C57.1308 6.15211 55.971 4.9923 54.4932 4.20195C53.1321 3.47406 51.7978 3.03125 48.0593 3.03125Z" fill="white" stroke="white" stroke-width="3.0303"/>
<path d="M57.5772 31.8164V35.9353C57.5772 39.2447 57.2326 40.4448 56.5856 41.6547C55.9385 42.8646 54.989 43.8141 53.7791 44.4611C52.5692 45.1082 51.3692 45.4528 48.0597 45.4528H14.0643C10.7549 45.4528 9.55482 45.1082 8.34495 44.4611C7.13507 43.8141 6.18555 42.8646 5.5385 41.6547C4.89145 40.4448 4.54688 39.2447 4.54688 35.9353V31.8164H57.5772Z" fill="#1D80AE"/>
<path d="M14.0643 4.54688H48.0597C51.3692 4.54688 52.5692 4.89145 53.7791 5.5385C54.989 6.18555 55.9385 7.13507 56.5856 8.34495C57.2326 9.55482 57.5772 10.7549 57.5772 14.0643V18.1832H4.54688V14.0643C4.54688 10.7549 4.89145 9.55482 5.5385 8.34495C6.18555 7.13507 7.13507 6.18555 8.34495 5.5385C9.55482 4.89145 10.7549 4.54688 14.0643 4.54688Z" fill="#F73030"/>
</svg>
