<svg width="63" height="51" viewBox="0 0 63 51" fill="none" xmlns="http://www.w3.org/2000/svg">
<g clip-path="url(#clip0_2089_1873)">
<rect x="3.38672" y="2.69531" width="55.996" height="43.9981" fill="white"/>
<rect x="1.83594" y="24.7578" width="29.6904" height="23.2734" fill="#0EA6FB"/>
<rect x="31.5273" y="1.51953" width="29.1055" height="23.2373" fill="#F63030"/>
<path d="M17.1427 17.6507L15.612 18.4674C15.1 18.7406 14.4648 18.5445 14.1933 18.0295C14.0847 17.8237 14.047 17.5876 14.0858 17.358L14.382 15.6049C14.4233 15.3607 14.3432 15.1116 14.1676 14.9379L12.9177 13.7013C12.5011 13.2892 12.4955 12.6154 12.9052 12.1963C13.0669 12.0309 13.2779 11.9232 13.5061 11.8895L15.2192 11.6369C15.465 11.6006 15.6773 11.4447 15.7865 11.2202L16.5538 9.64224C16.8082 9.11902 17.4362 8.90235 17.9563 9.15829C18.1657 9.26132 18.335 9.43161 18.4374 9.64224L19.2047 11.2202C19.3139 11.4447 19.5261 11.6006 19.772 11.6369L21.4851 11.8895C22.0632 11.9748 22.4632 12.5153 22.3784 13.0969C22.345 13.3264 22.2379 13.5387 22.0735 13.7013L20.8236 14.9379C20.648 15.1116 20.5679 15.3607 20.6092 15.6049L20.9054 17.358C21.0026 17.9327 20.6181 18.4778 20.0468 18.5755C19.8185 18.6146 19.5838 18.5766 19.3792 18.4674L17.8485 17.6507C17.6278 17.5329 17.3634 17.5329 17.1427 17.6507Z" fill="#0EA6FB"/>
<path d="M43.5021 39.5882L41.9714 40.4049C41.4594 40.6781 40.8242 40.482 40.5526 39.967C40.4441 39.7612 40.4063 39.5251 40.4451 39.2955L40.7414 37.5424C40.7827 37.2982 40.7026 37.0491 40.527 36.8754L39.2771 35.6388C38.8605 35.2267 38.8549 34.5529 39.2646 34.1338C39.4263 33.9684 39.6373 33.8607 39.8655 33.827L41.5786 33.5744C41.8244 33.5381 42.0367 33.3822 42.1458 33.1577L42.9132 31.5797C43.1676 31.0565 43.7955 30.8399 44.3157 31.0958C44.5251 31.1988 44.6943 31.3691 44.7968 31.5797L45.5641 33.1577C45.6733 33.3822 45.8855 33.5381 46.1314 33.5744L47.8445 33.827C48.4226 33.9123 48.8226 34.4528 48.7378 35.0344C48.7044 35.2639 48.5973 35.4762 48.4329 35.6388L47.1829 36.8754C47.0073 37.0491 46.9273 37.2982 46.9686 37.5424L47.2648 39.2955C47.3619 39.8702 46.9775 40.4153 46.4061 40.513C46.1778 40.5521 45.9431 40.5141 45.7386 40.4049L44.2079 39.5882C43.9872 39.4704 43.7228 39.4704 43.5021 39.5882Z" fill="#F63030"/>
</g>
<rect x="3.38672" y="2.75781" width="56" height="44" rx="9" stroke="white" stroke-width="3"/>
<defs>
<clipPath id="clip0_2089_1873">
<rect x="3.38672" y="2.75781" width="56" height="44" rx="9" fill="white"/>
</clipPath>
</defs>
</svg>
