<svg width="63" height="50" viewBox="0 0 63 50" fill="none" xmlns="http://www.w3.org/2000/svg">
<path d="M14.0643 4.54297H48.0597C51.3692 4.54297 52.5692 4.88755 53.7791 5.5346C54.989 6.18165 55.9385 7.13116 56.5856 8.34104C57.2326 9.55092 57.5772 10.751 57.5772 14.0604V35.9346C57.5772 39.244 57.2326 40.4441 56.5856 41.654C55.9385 42.8639 54.989 43.8134 53.7791 44.4604C52.5692 45.1075 51.3692 45.4521 48.0597 45.4521H14.0643C10.7549 45.4521 9.55482 45.1075 8.34495 44.4604C7.13507 43.8134 6.18555 42.8639 5.5385 41.654C4.89145 40.4441 4.54687 39.244 4.54688 35.9346V14.0604C4.54687 10.751 4.89145 9.55092 5.5385 8.34104C6.18555 7.13116 7.13507 6.18165 8.34495 5.5346C9.55482 4.88755 10.7549 4.54297 14.0643 4.54297Z" fill="white"/>
<path d="M48.0593 3.02734H14.0639C10.3253 3.02734 8.99096 3.47016 7.62993 4.19804C6.15211 4.98839 4.9923 6.1482 4.20195 7.62602C3.47406 8.98706 3.03125 10.3214 3.03125 14.0599V35.9341C3.03125 39.6726 3.47406 41.007 4.20195 42.3681C4.9923 43.8459 6.15211 45.0057 7.62993 45.796C8.99096 46.5239 10.3253 46.9667 14.0639 46.9667H48.0593C51.7978 46.9667 53.1321 46.5239 54.4932 45.796C55.971 45.0057 57.1308 43.8459 57.9212 42.3681C58.649 41.007 59.0919 39.6726 59.0919 35.9341V14.0599C59.0919 10.3214 58.649 8.98706 57.9212 7.62602C57.1308 6.1482 55.971 4.98839 54.4932 4.19804C53.1321 3.47016 51.7978 3.02734 48.0593 3.02734Z" fill="white" stroke="white" stroke-width="3.0303"/>
<path d="M57.3589 39.3906C57.1924 40.3594 56.9325 41.0049 56.5858 41.6532C55.9388 42.863 54.9892 43.8126 53.7794 44.4596C52.5695 45.1067 51.3694 45.4512 48.06 45.4512H14.0646C10.7552 45.4512 9.55508 45.1067 8.3452 44.4596C7.13533 43.8126 6.18581 42.863 5.53876 41.6532C5.19204 41.0049 4.93217 40.3594 4.76562 39.3906H57.3589Z" fill="#F73030"/>
<path fill-rule="evenodd" clip-rule="evenodd" d="M57.5772 16.6641V33.3307H4.54688V16.6641H57.5772Z" fill="#1D80AE"/>
<path d="M14.0646 4.54297H48.06C51.3694 4.54297 52.5695 4.88755 53.7794 5.5346C54.9892 6.18165 55.9388 7.13116 56.5858 8.34104C56.9325 8.98935 57.1924 9.63484 57.3589 10.6036H4.76562C4.93217 9.63484 5.19204 8.98935 5.53876 8.34104C6.18581 7.13116 7.13533 6.18165 8.3452 5.5346C9.55508 4.88755 10.7552 4.54297 14.0646 4.54297Z" fill="#F73030"/>
</svg>
