<svg width="63" height="50" viewBox="0 0 63 50" fill="none" xmlns="http://www.w3.org/2000/svg">
<path fill-rule="evenodd" clip-rule="evenodd" d="M48.0593 3.03516H14.0639C10.3253 3.03516 8.99096 3.47797 7.62993 4.20586C6.15211 4.99621 4.9923 6.15601 4.20195 7.63384C3.47406 8.99487 3.03125 10.3292 3.03125 14.0678V35.7968C3.03125 39.5353 3.47406 40.8697 4.20195 42.2307C4.9923 43.7085 6.15211 44.8683 7.62993 45.6587C8.99096 46.3866 10.3253 46.8294 14.0639 46.8294H48.0593C51.7978 46.8294 53.1321 46.3866 54.4932 45.6587C55.971 44.8683 57.1308 43.7085 57.9212 42.2307C58.649 40.8697 59.0919 39.5353 59.0919 35.7968V14.0678C59.0919 10.3292 58.649 8.99487 57.9212 7.63384C57.1308 6.15601 55.971 4.99621 54.4932 4.20586C53.1321 3.47797 51.7978 3.03516 48.0593 3.03516Z" fill="#F73030" stroke="white" stroke-width="3.0303"/>
<path d="M36.6017 16.1662C35.9392 15.9975 35.3553 15.9131 34.8503 15.9131C29.8295 15.9131 25.7594 19.9833 25.7594 25.004C25.7594 30.0248 29.8295 34.0949 34.8503 34.0949C35.3553 34.0949 35.9391 34.0106 36.6016 33.8418C37.0071 33.7385 37.4195 33.9835 37.5228 34.389C37.6004 34.6937 37.4817 35.0146 37.2246 35.1956C35.3964 36.482 33.0898 37.1252 30.3048 37.1252C23.6104 37.1252 18.1836 31.6984 18.1836 25.004C18.1836 18.3097 23.6104 12.8828 30.3048 12.8828C33.0898 12.8828 35.3964 13.5261 37.2247 14.8125C37.5668 15.0533 37.6491 15.5259 37.4083 15.8681C37.2273 16.1252 36.9064 16.2438 36.6017 16.1662Z" fill="white"/>
<path d="M40.7322 28.7147L39.4563 29.9022C39.0295 30.2994 38.3615 30.2754 37.9643 29.8486C37.8056 29.6781 37.7078 29.4598 37.6861 29.2279L37.5202 27.4574C37.4971 27.2107 37.3548 26.9909 37.1392 26.8688L35.6047 25.9998C35.0932 25.7102 34.9133 25.0607 35.203 24.5492C35.3173 24.3474 35.4944 24.1884 35.7074 24.0965L37.3066 23.4064C37.5361 23.3074 37.702 23.1015 37.75 22.8562L38.0872 21.1322C38.199 20.5605 38.753 20.1877 39.3247 20.2995C39.5548 20.3445 39.7634 20.4649 39.9174 20.6417L41.0715 21.9662C41.2357 22.1547 41.4823 22.25 41.7305 22.221L43.4605 22.019C44.0444 21.9509 44.5729 22.3689 44.6411 22.9527C44.668 23.1832 44.6189 23.4161 44.5012 23.616L43.6067 25.1359C43.4811 25.3494 43.4677 25.6109 43.5711 25.8361L44.3127 27.4523C44.5558 27.9822 44.3233 28.6088 43.7935 28.852C43.5817 28.9491 43.3438 28.9735 43.1168 28.9213L41.418 28.531C41.1731 28.4747 40.9162 28.5435 40.7322 28.7147Z" fill="white"/>
</svg>
