<svg width="63" height="50" viewBox="0 0 63 50" fill="none" xmlns="http://www.w3.org/2000/svg">
<path fill-rule="evenodd" clip-rule="evenodd" d="M48.0593 3.03125H14.0639C10.3253 3.03125 8.99096 3.47406 7.62993 4.20195C6.15211 4.9923 4.9923 6.15211 4.20195 7.62993C3.47406 8.99096 3.03125 10.3253 3.03125 14.0639V35.938C3.03125 39.6766 3.47406 41.0109 4.20195 42.372C4.9923 43.8498 6.15211 45.0096 7.62993 45.7999C8.99096 46.5278 10.3253 46.9706 14.0639 46.9706H48.0593C51.7978 46.9706 53.1321 46.5278 54.4932 45.7999C55.971 45.0096 57.1308 43.8498 57.9212 42.372C58.649 41.0109 59.0919 39.6766 59.0919 35.938V14.0639C59.0919 10.3253 58.649 8.99096 57.9212 7.62993C57.1308 6.15211 55.971 4.9923 54.4932 4.20195C53.1321 3.47406 51.7978 3.03125 48.0593 3.03125Z" fill="white" stroke="white" stroke-width="3.0303"/>
<path fill-rule="evenodd" clip-rule="evenodd" d="M14.0672 4.54688H48.0626C51.372 4.54688 52.5721 4.89145 53.782 5.5385C54.9919 6.18555 55.9414 7.13507 56.5884 8.34495C56.7188 8.5887 56.8369 8.83205 56.9423 9.09233H5.1875C5.29296 8.83205 5.41104 8.5887 5.5414 8.34495C6.18845 7.13507 7.13797 6.18555 8.34784 5.5385C9.55772 4.89145 10.7578 4.54688 14.0672 4.54688Z" fill="#F73030"/>
<path fill-rule="evenodd" clip-rule="evenodd" d="M57.5752 13.6367C57.5765 13.7749 57.5772 13.917 57.5772 14.0633V18.1822H4.54688V14.0633C4.54688 13.917 4.54755 13.7749 4.54889 13.6367H57.5752Z" fill="#F73030"/>
<path fill-rule="evenodd" clip-rule="evenodd" d="M57.5772 22.7266V27.272H4.54688L4.54688 22.7266H57.5772Z" fill="#F73030"/>
<path fill-rule="evenodd" clip-rule="evenodd" d="M57.5772 35.9353C57.5772 36.0816 57.5765 36.2237 57.5752 36.3619H4.54889C4.54755 36.2237 4.54688 36.0816 4.54688 35.9353V31.8164H57.5772V35.9353Z" fill="#F73030"/>
<path fill-rule="evenodd" clip-rule="evenodd" d="M56.9423 40.9102C56.8369 41.1704 56.7188 41.4138 56.5884 41.6575C55.9414 42.8674 54.9919 43.8169 53.782 44.464C52.5721 45.111 51.372 45.4556 48.0626 45.4556H14.0672C10.7578 45.4556 9.55772 45.111 8.34784 44.464C7.13797 43.8169 6.18845 42.8674 5.5414 41.6575C5.41104 41.4138 5.29296 41.1704 5.1875 40.9102H56.9423Z" fill="#F73030"/>
<path fill-rule="evenodd" clip-rule="evenodd" d="M14.0643 4.54688H31.062V22.7287H4.54688V14.0643C4.54688 10.7549 4.89145 9.55482 5.5385 8.34495C6.18555 7.13507 7.13507 6.18555 8.34495 5.5385C9.55482 4.89145 10.7549 4.54688 14.0643 4.54688Z" fill="#1D80AE"/>
<path d="M25.6135 11.8211L24.6472 12.3291C24.3437 12.4887 23.9684 12.372 23.8089 12.0686C23.7454 11.9478 23.7235 11.8094 23.7466 11.6748L23.9311 10.5988C23.9487 10.4964 23.9147 10.3919 23.8403 10.3194L23.0585 9.55732C22.8131 9.31803 22.808 8.92505 23.0473 8.67957C23.1426 8.58182 23.2675 8.5182 23.4025 8.49857L24.483 8.34158C24.5858 8.32664 24.6746 8.26207 24.7206 8.16891L25.2038 7.18989C25.3555 6.88248 25.7277 6.75627 26.0351 6.90799C26.1575 6.9684 26.2566 7.06748 26.317 7.18989L26.8002 8.16891C26.8462 8.26207 26.9351 8.32664 27.0379 8.34158L28.1183 8.49857C28.4575 8.54787 28.6926 8.86285 28.6433 9.20209C28.6236 9.33718 28.56 9.46203 28.4623 9.55732L27.6805 10.3194C27.6061 10.3919 27.5721 10.4964 27.5897 10.5988L27.7743 11.6748C27.8322 12.0127 27.6053 12.3336 27.2674 12.3915C27.1329 12.4146 26.9945 12.3927 26.8736 12.3291L25.9073 11.8211C25.8153 11.7728 25.7055 11.7728 25.6135 11.8211Z" fill="white"/>
<path d="M25.6135 19.3953L24.6472 19.9034C24.3437 20.0629 23.9684 19.9462 23.8089 19.6428C23.7454 19.522 23.7235 19.3836 23.7466 19.249L23.9311 18.173C23.9487 18.0706 23.9147 17.9661 23.8403 17.8936L23.0585 17.1315C22.8131 16.8923 22.808 16.4993 23.0473 16.2538C23.1426 16.156 23.2675 16.0924 23.4025 16.0728L24.483 15.9158C24.5858 15.9009 24.6746 15.8363 24.7206 15.7431L25.2038 14.7641C25.3555 14.4567 25.7277 14.3305 26.0351 14.4822C26.1575 14.5426 26.2566 14.6417 26.317 14.7641L26.8002 15.7431C26.8462 15.8363 26.9351 15.9009 27.0379 15.9158L28.1183 16.0728C28.4575 16.1221 28.6926 16.4371 28.6433 16.7763C28.6236 16.9114 28.56 17.0363 28.4623 17.1315L27.6805 17.8936C27.6061 17.9661 27.5721 18.0706 27.5897 18.173L27.7743 19.249C27.8322 19.5869 27.6053 19.9078 27.2674 19.9657C27.1329 19.9888 26.9945 19.9669 26.8736 19.9034L25.9073 19.3953C25.8153 19.347 25.7055 19.347 25.6135 19.3953Z" fill="white"/>
<path d="M18.0393 11.8211L17.073 12.3291C16.7695 12.4887 16.3942 12.372 16.2347 12.0686C16.1712 11.9478 16.1493 11.8094 16.1723 11.6748L16.3569 10.5988C16.3745 10.4964 16.3405 10.3919 16.2661 10.3194L15.4843 9.55732C15.2388 9.31803 15.2338 8.92505 15.4731 8.67957C15.5684 8.58182 15.6932 8.5182 15.8283 8.49857L16.9087 8.34158C17.0115 8.32664 17.1004 8.26207 17.1464 8.16891L17.6296 7.18989C17.7813 6.88248 18.1535 6.75627 18.4609 6.90799C18.5833 6.9684 18.6824 7.06748 18.7428 7.18989L19.226 8.16891C19.272 8.26207 19.3608 8.32664 19.4636 8.34158L20.544 8.49857C20.8833 8.54787 21.1183 8.86285 21.0691 9.20209C21.0494 9.33718 20.9858 9.46203 20.8881 9.55732L20.1063 10.3194C20.0319 10.3919 19.9979 10.4964 20.0155 10.5988L20.2 11.6748C20.258 12.0127 20.0311 12.3336 19.6932 12.3915C19.5586 12.4146 19.4202 12.3927 19.2994 12.3291L18.3331 11.8211C18.2411 11.7728 18.1313 11.7728 18.0393 11.8211Z" fill="white"/>
<path d="M18.0393 19.3953L17.073 19.9034C16.7695 20.0629 16.3942 19.9462 16.2347 19.6428C16.1712 19.522 16.1493 19.3836 16.1723 19.249L16.3569 18.173C16.3745 18.0706 16.3405 17.9661 16.2661 17.8936L15.4843 17.1315C15.2388 16.8923 15.2338 16.4993 15.4731 16.2538C15.5684 16.156 15.6932 16.0924 15.8283 16.0728L16.9087 15.9158C17.0115 15.9009 17.1004 15.8363 17.1464 15.7431L17.6296 14.7641C17.7813 14.4567 18.1535 14.3305 18.4609 14.4822C18.5833 14.5426 18.6824 14.6417 18.7428 14.7641L19.226 15.7431C19.272 15.8363 19.3608 15.9009 19.4636 15.9158L20.544 16.0728C20.8833 16.1221 21.1183 16.4371 21.0691 16.7763C21.0494 16.9114 20.9858 17.0363 20.8881 17.1315L20.1063 17.8936C20.0319 17.9661 19.9979 18.0706 20.0155 18.173L20.2 19.249C20.258 19.5869 20.0311 19.9078 19.6932 19.9657C19.5586 19.9888 19.4202 19.9669 19.2994 19.9034L18.3331 19.3953C18.2411 19.347 18.1313 19.347 18.0393 19.3953Z" fill="white"/>
<path d="M10.4612 11.8211L9.49483 12.3291C9.1914 12.4887 8.8161 12.372 8.65658 12.0686C8.59306 11.9478 8.57114 11.8094 8.59421 11.6748L8.77877 10.5988C8.79633 10.4964 8.76238 10.3919 8.68798 10.3194L7.9062 9.55732C7.66072 9.31803 7.65569 8.92505 7.89498 8.67957C7.99026 8.58182 8.11512 8.5182 8.25021 8.49857L9.33061 8.34158C9.43342 8.32664 9.5223 8.26207 9.56828 8.16891L10.0514 7.18989C10.2032 6.88248 10.5754 6.75627 10.8828 6.90799C11.0052 6.9684 11.1043 7.06748 11.1647 7.18989L11.6478 8.16891C11.6938 8.26207 11.7827 8.32664 11.8855 8.34158L12.9659 8.49857C13.3052 8.54787 13.5402 8.86285 13.4909 9.20209C13.4713 9.33718 13.4077 9.46203 13.3099 9.55732L12.5281 10.3194C12.4537 10.3919 12.4198 10.4964 12.4374 10.5988L12.6219 11.6748C12.6799 12.0127 12.4529 12.3336 12.1151 12.3915C11.9805 12.4146 11.8421 12.3927 11.7213 12.3291L10.755 11.8211C10.663 11.7728 10.5531 11.7728 10.4612 11.8211Z" fill="white"/>
<path d="M10.4612 19.3953L9.49483 19.9034C9.1914 20.0629 8.8161 19.9462 8.65658 19.6428C8.59306 19.522 8.57114 19.3836 8.59421 19.249L8.77877 18.173C8.79633 18.0706 8.76238 17.9661 8.68798 17.8936L7.9062 17.1315C7.66072 16.8923 7.65569 16.4993 7.89498 16.2538C7.99026 16.156 8.11512 16.0924 8.25021 16.0728L9.33061 15.9158C9.43342 15.9009 9.5223 15.8363 9.56828 15.7431L10.0514 14.7641C10.2032 14.4567 10.5754 14.3305 10.8828 14.4822C11.0052 14.5426 11.1043 14.6417 11.1647 14.7641L11.6478 15.7431C11.6938 15.8363 11.7827 15.9009 11.8855 15.9158L12.9659 16.0728C13.3052 16.1221 13.5402 16.4371 13.4909 16.7763C13.4713 16.9114 13.4077 17.0363 13.3099 17.1315L12.5281 17.8936C12.4537 17.9661 12.4198 18.0706 12.4374 18.173L12.6219 19.249C12.6799 19.5869 12.4529 19.9078 12.1151 19.9657C11.9805 19.9888 11.8421 19.9669 11.7213 19.9034L10.755 19.3953C10.663 19.347 10.5531 19.347 10.4612 19.3953Z" fill="white"/>
</svg>
