<svg width="63" height="50" viewBox="0 0 63 50" fill="none" xmlns="http://www.w3.org/2000/svg">
<path d="M48.0593 3.03516H14.0639C10.3253 3.03516 8.99096 3.47797 7.62993 4.20586C6.15211 4.99621 4.9923 6.15601 4.20195 7.63384C3.47406 8.99487 3.03125 10.3292 3.03125 14.0678V35.9419C3.03125 39.6805 3.47406 41.0148 4.20195 42.3759C4.9923 43.8537 6.15211 45.0135 7.62993 45.8039C8.99096 46.5317 10.3253 46.9746 14.0639 46.9746H48.0593C51.7978 46.9746 53.1321 46.5317 54.4932 45.8039C55.971 45.0135 57.1308 43.8537 57.9212 42.3759C58.649 41.0148 59.0919 39.6805 59.0919 35.9419V14.0678C59.0919 10.3292 58.649 8.99487 57.9212 7.63384C57.1308 6.15601 55.971 4.99621 54.4932 4.20586C53.1321 3.47797 51.7978 3.03516 48.0593 3.03516Z" fill="#F73030" stroke="white" stroke-width="3.0303"/>
<path d="M30.7099 30.8701L27.7228 32.4406C26.8125 32.9191 25.6866 32.5692 25.208 31.6589C25.0175 31.2964 24.9517 30.8812 25.0209 30.4775L25.5914 27.1513C25.6336 26.9055 25.5521 26.6548 25.3735 26.4807L22.9569 24.1251C22.2204 23.4072 22.2054 22.2283 22.9232 21.4918C23.2091 21.1986 23.5836 21.0077 23.9889 20.9488L27.3286 20.4636C27.5754 20.4277 27.7887 20.2727 27.899 20.0491L29.3926 17.0228C29.8478 16.1006 30.9644 15.7219 31.8866 16.1771C32.2538 16.3583 32.5511 16.6556 32.7323 17.0228L34.2259 20.0491C34.3362 20.2727 34.5496 20.4277 34.7963 20.4636L38.136 20.9488C39.1538 21.0967 39.8589 22.0417 39.7111 23.0594C39.6522 23.4647 39.4613 23.8392 39.1681 24.1251L36.7514 26.4807C36.5729 26.6548 36.4914 26.9055 36.5335 27.1513L37.104 30.4775C37.2779 31.4912 36.5971 32.4538 35.5835 32.6277C35.1798 32.6969 34.7646 32.6311 34.4022 32.4406L31.415 30.8701C31.1943 30.7541 30.9306 30.7541 30.7099 30.8701Z" fill="#FFDA27"/>
</svg>
