
<svg width="487" height="586" viewBox="0 0 487 586" fill="none" xmlns="http://www.w3.org/2000/svg">
<rect x="21.5" y="47.5" width="444" height="444" rx="48.5" stroke="#2B2D42" stroke-width="43"/>
<path d="M182.794 426.425C163.372 426.425 146.531 422.738 132.272 415.362C118.259 407.741 107.442 397.538 99.8206 384.754C92.1993 371.724 88.3887 357.342 88.3887 341.608V232.821H145.548V340.133C145.548 346.771 147.146 352.917 150.342 358.571C153.538 363.98 157.84 368.405 163.249 371.847C168.904 375.043 175.296 376.641 182.425 376.641C189.309 376.641 195.455 375.043 200.864 371.847C206.518 368.405 210.943 363.98 214.139 358.571C217.335 352.917 218.933 346.771 218.933 340.133V232.821H276.093V341.608C276.093 357.342 272.405 371.724 265.03 384.754C257.654 397.538 246.96 407.741 232.947 415.362C219.179 422.738 202.462 426.425 182.794 426.425ZM318.87 422V232.821H376.398V422H318.87ZM347.634 211.432C338.538 211.432 330.671 208.113 324.033 201.475C317.395 194.837 314.076 186.97 314.076 177.874C314.076 168.778 317.395 160.911 324.033 154.273C330.671 147.389 338.538 143.947 347.634 143.947C356.731 143.947 364.598 147.389 371.236 154.273C377.873 160.911 381.192 168.778 381.192 177.874C381.192 186.97 377.873 194.837 371.236 201.475C364.598 208.113 356.731 211.432 347.634 211.432Z" fill="#2B2D42"/>
</svg>
