<svg width="763" height="918" viewBox="0 0 763 918" fill="none" xmlns="http://www.w3.org/2000/svg">
<rect x="34.5529" y="74.3314" width="694.802" height="694.802" rx="75.8962" stroke="#2B2D42" stroke-width="67.2894"/>
<path d="M286.957 667.925C256.564 667.925 230.211 662.154 207.897 650.613C185.968 638.686 169.041 622.72 157.114 602.715C145.188 582.325 139.225 559.819 139.225 535.197V364.959H228.672V532.889C228.672 543.276 231.173 552.894 236.174 561.743C241.175 570.206 247.908 577.131 256.372 582.517C265.22 587.519 275.223 590.019 286.38 590.019C297.152 590.019 306.77 587.519 315.234 582.517C324.082 577.131 331.007 570.206 336.009 561.743C341.01 552.894 343.511 543.276 343.511 532.889V364.959H432.958V535.197C432.958 559.819 427.187 582.325 415.645 602.715C404.104 622.72 387.369 638.686 365.44 650.613C343.895 662.154 317.734 667.925 286.957 667.925ZM499.899 661V364.959H589.923V661H499.899ZM544.911 331.489C530.676 331.489 518.365 326.295 507.978 315.907C497.59 305.52 492.397 293.209 492.397 278.974C492.397 264.74 497.59 252.429 507.978 242.041C518.365 231.269 530.676 225.883 544.911 225.883C559.145 225.883 571.456 231.269 581.844 242.041C592.231 252.429 597.425 264.74 597.425 278.974C597.425 293.209 592.231 305.52 581.844 315.907C571.456 326.295 559.145 331.489 544.911 331.489Z" fill="#2B2D42"/>
</svg>
