<svg width="81" height="81" viewBox="0 0 81 81" fill="none" xmlns="http://www.w3.org/2000/svg">
<rect width="81" height="81" fill="white"/>
<path d="M57.1915 15.9613C57.9542 14.1558 60.5128 14.1558 61.2755 15.9613L63.4112 21.0168C63.6358 21.5485 64.0589 21.9716 64.5906 22.1962L69.6461 24.3318C71.4516 25.0946 71.4516 27.6532 69.6461 28.4159L64.5906 30.5516C64.0589 30.7762 63.6358 31.1993 63.4112 31.731L61.2755 36.7865C60.5128 38.592 57.9542 38.592 57.1915 36.7865L55.0558 31.731C54.8312 31.1993 54.4081 30.7762 53.8764 30.5516L48.8209 28.4159C47.0154 27.6532 47.0154 25.0946 48.8209 24.3318L53.8764 22.1962C54.4081 21.9716 54.8312 21.5485 55.0558 21.0168L57.1915 15.9613Z" fill="#030303"/>
<path fill-rule="evenodd" clip-rule="evenodd" d="M19.1156 14.6072C13.6945 14.6072 9.2998 19.0019 9.2998 24.423C9.2998 29.8441 13.6945 34.2388 19.1156 34.2388H32.2233C37.6444 34.2388 42.0391 29.8441 42.0391 24.423C42.0391 19.0019 37.6444 14.6072 32.2233 14.6072H19.1156ZM31.9816 17.1351C27.9566 17.1351 24.6937 20.398 24.6937 24.423C24.6937 28.448 27.9566 31.711 31.9816 31.711C36.0066 31.711 39.2695 28.448 39.2695 24.423C39.2695 20.398 36.0066 17.1351 31.9816 17.1351Z" fill="#030303"/>
<path fill-rule="evenodd" clip-rule="evenodd" d="M31.8442 45.9454C31.8442 44.7397 30.8622 43.7622 29.6507 43.7622H11.5028C10.2913 43.7622 9.30926 44.7397 9.30926 45.9454C9.30926 47.1512 10.2913 48.1286 11.5028 48.1286H24.355L9.95174 62.464C9.09511 63.3166 9.09511 64.6989 9.95174 65.5515C10.8084 66.4041 12.1973 66.4041 13.0539 65.5515L27.4571 51.2162V64.0078C27.4571 65.2135 28.4392 66.191 29.6507 66.191C30.8622 66.191 31.8442 65.2135 31.8442 64.0078V45.9454Z" fill="#030303"/>
<path d="M61.0805 61.7207L57.3579 65.8668C56.9059 66.3703 56.1071 66.3373 55.6981 65.7983L52.7726 61.9433C52.1105 61.0709 51.0785 60.5585 49.9834 60.5585H45.8627C43.929 60.5585 42.3613 58.9909 42.3613 57.0571V48.1332C42.3613 46.1995 43.929 44.6318 45.8627 44.6318H67.4889C69.4226 44.6318 70.9903 46.1995 70.9903 48.1332V57.0571C70.9903 58.9909 69.4226 60.5585 67.4889 60.5585H63.6859C62.6918 60.5585 61.7446 60.9811 61.0805 61.7207Z" fill="#030303"/>
</svg>
